<mxfile modified="2022-10-26T06:23:59.079Z" host="Electron" agent="5.0 (Windows NT 10.0; Win64; x64) AppleWebKit/537.36 (KHTML, like Gecko) draw.io/20.3.0 Chrome/104.0.5112.114 Electron/20.1.3 Safari/537.36" etag="jZaAslBZQreS7R6NUQdx" compressed="false" version="20.3.0" type="device">
  <diagram name="Functionality/System Logical Module/Sponsor Information" id="qD6M_oxDVMBFMefki04I">
    <mxGraphModel dx="782" dy="549" grid="1" gridSize="10" guides="1" tooltips="1" connect="1" arrows="1" fold="1" page="1" pageScale="1" pageWidth="827" pageHeight="1169" math="0" shadow="0">
      <root>
        <mxCell id="EUdj9k4-ygwC6GXZzMeQ-0" />
        <mxCell id="DUBSgx6bod0XztLXTJJ8-1" value="Notes" parent="EUdj9k4-ygwC6GXZzMeQ-0" />
        <mxCell id="DUBSgx6bod0XztLXTJJ8-0" value="Information about the organisation that commissioned the system&#39;s development, including organisation Name, Contact channel information, etc." style="shape=note;whiteSpace=wrap;html=1;size=14;verticalAlign=top;align=left;spacingTop=-6;strokeWidth=1;fillColor=none;fontSize=12;" parent="DUBSgx6bod0XztLXTJJ8-1" vertex="1">
          <mxGeometry x="500" y="190" width="200" height="70" as="geometry" />
        </mxCell>
        <mxCell id="y_7dkP2vaX2RMSq6GHMM-0" style="edgeStyle=orthogonalEdgeStyle;rounded=0;orthogonalLoop=1;jettySize=auto;html=1;endArrow=block;endFill=0;" edge="1" parent="DUBSgx6bod0XztLXTJJ8-1" source="y_7dkP2vaX2RMSq6GHMM-1" target="y_7dkP2vaX2RMSq6GHMM-2">
          <mxGeometry relative="1" as="geometry" />
        </mxCell>
        <mxCell id="y_7dkP2vaX2RMSq6GHMM-1" value="&amp;lt;&amp;lt;actor&amp;gt;&amp;gt;&lt;br&gt;&lt;b&gt;Developer&lt;br&gt;&lt;/b&gt;" style="text;html=1;align=center;verticalAlign=middle;dashed=0;fillColor=#ffffff;strokeColor=#000000;" vertex="1" parent="DUBSgx6bod0XztLXTJJ8-1">
          <mxGeometry x="240" y="160" width="80" height="40" as="geometry" />
        </mxCell>
        <mxCell id="y_7dkP2vaX2RMSq6GHMM-2" value="&amp;lt;&amp;lt;actor&amp;gt;&amp;gt;&lt;br&gt;&lt;b&gt;Authorised&lt;br&gt;User&lt;br&gt;&lt;/b&gt;" style="text;html=1;align=center;verticalAlign=middle;dashed=0;fillColor=#ffffff;strokeColor=#000000;" vertex="1" parent="DUBSgx6bod0XztLXTJJ8-1">
          <mxGeometry x="120" y="220" width="80" height="40" as="geometry" />
        </mxCell>
        <mxCell id="y_7dkP2vaX2RMSq6GHMM-3" value="" style="fontStyle=1;align=left;verticalAlign=top;childLayout=stackLayout;horizontal=1;horizontalStack=0;resizeParent=1;resizeParentMax=0;resizeLast=0;marginBottom=0;" vertex="1" parent="DUBSgx6bod0XztLXTJJ8-1">
          <mxGeometry x="360" y="160" width="120" height="40" as="geometry" />
        </mxCell>
        <mxCell id="y_7dkP2vaX2RMSq6GHMM-4" value="&lt;p style=&quot;line-height: 0.9;&quot;&gt;Edit Sponsor &lt;br&gt;Info&lt;/p&gt;" style="html=1;align=left;spacingLeft=4;verticalAlign=middle;strokeColor=none;fillColor=none;fontStyle=1;spacingTop=2;" vertex="1" parent="y_7dkP2vaX2RMSq6GHMM-3">
          <mxGeometry width="120" height="20" as="geometry" />
        </mxCell>
        <mxCell id="y_7dkP2vaX2RMSq6GHMM-5" value="" style="shape=ellipse;" vertex="1" parent="y_7dkP2vaX2RMSq6GHMM-4">
          <mxGeometry x="1" width="20" height="10" relative="1" as="geometry">
            <mxPoint x="-25" y="5" as="offset" />
          </mxGeometry>
        </mxCell>
        <mxCell id="y_7dkP2vaX2RMSq6GHMM-6" value="" style="line;strokeWidth=1;fillColor=none;align=left;verticalAlign=middle;spacingTop=-1;spacingLeft=3;spacingRight=3;rotatable=0;labelPosition=right;points=[];portConstraint=eastwest;" vertex="1" parent="y_7dkP2vaX2RMSq6GHMM-3">
          <mxGeometry y="20" width="120" height="8" as="geometry" />
        </mxCell>
        <mxCell id="y_7dkP2vaX2RMSq6GHMM-7" value="- - -" style="html=1;align=left;spacingLeft=4;verticalAlign=top;strokeColor=none;fillColor=none;fontSize=8;spacing=-2;" vertex="1" parent="y_7dkP2vaX2RMSq6GHMM-3">
          <mxGeometry y="28" width="120" height="12" as="geometry" />
        </mxCell>
        <mxCell id="y_7dkP2vaX2RMSq6GHMM-8" value="" style="endArrow=open;endFill=1;endSize=12;html=1;strokeColor=#000000;fontSize=10;entryX=0;entryY=0.5;entryDx=0;entryDy=0;" edge="1" parent="DUBSgx6bod0XztLXTJJ8-1">
          <mxGeometry width="160" relative="1" as="geometry">
            <mxPoint x="320" y="180" as="sourcePoint" />
            <mxPoint x="360" y="180" as="targetPoint" />
          </mxGeometry>
        </mxCell>
        <mxCell id="y_7dkP2vaX2RMSq6GHMM-9" style="edgeStyle=orthogonalEdgeStyle;rounded=0;orthogonalLoop=1;jettySize=auto;html=1;entryX=0.5;entryY=1;entryDx=0;entryDy=0;endArrow=block;endFill=0;" edge="1" parent="DUBSgx6bod0XztLXTJJ8-1" target="y_7dkP2vaX2RMSq6GHMM-2">
          <mxGeometry relative="1" as="geometry">
            <mxPoint x="240" y="280" as="sourcePoint" />
            <mxPoint x="200" y="280" as="targetPoint" />
          </mxGeometry>
        </mxCell>
        <mxCell id="y_7dkP2vaX2RMSq6GHMM-15" value="&amp;lt;&amp;lt;actor&amp;gt;&amp;gt;&lt;br&gt;&lt;b&gt;User&lt;br&gt;&lt;/b&gt;" style="text;html=1;align=center;verticalAlign=middle;dashed=0;fillColor=#ffffff;strokeColor=#000000;" vertex="1" parent="DUBSgx6bod0XztLXTJJ8-1">
          <mxGeometry x="240" y="260" width="80" height="40" as="geometry" />
        </mxCell>
        <mxCell id="y_7dkP2vaX2RMSq6GHMM-16" value="" style="fontStyle=1;align=left;verticalAlign=top;childLayout=stackLayout;horizontal=1;horizontalStack=0;resizeParent=1;resizeParentMax=0;resizeLast=0;marginBottom=0;" vertex="1" parent="DUBSgx6bod0XztLXTJJ8-1">
          <mxGeometry x="360" y="260" width="120" height="40" as="geometry" />
        </mxCell>
        <mxCell id="y_7dkP2vaX2RMSq6GHMM-17" value="&lt;p style=&quot;line-height: 0.8;&quot;&gt;Read Sponsor&lt;br&gt;Info&lt;/p&gt;" style="html=1;align=left;spacingLeft=4;verticalAlign=middle;strokeColor=none;fillColor=none;fontStyle=1;spacingTop=2;" vertex="1" parent="y_7dkP2vaX2RMSq6GHMM-16">
          <mxGeometry width="120" height="20" as="geometry" />
        </mxCell>
        <mxCell id="y_7dkP2vaX2RMSq6GHMM-18" value="" style="shape=ellipse;" vertex="1" parent="y_7dkP2vaX2RMSq6GHMM-17">
          <mxGeometry x="1" width="20" height="10" relative="1" as="geometry">
            <mxPoint x="-25" y="5" as="offset" />
          </mxGeometry>
        </mxCell>
        <mxCell id="y_7dkP2vaX2RMSq6GHMM-19" value="" style="line;strokeWidth=1;fillColor=none;align=left;verticalAlign=middle;spacingTop=-1;spacingLeft=3;spacingRight=3;rotatable=0;labelPosition=right;points=[];portConstraint=eastwest;" vertex="1" parent="y_7dkP2vaX2RMSq6GHMM-16">
          <mxGeometry y="20" width="120" height="8" as="geometry" />
        </mxCell>
        <mxCell id="y_7dkP2vaX2RMSq6GHMM-20" value="." style="html=1;align=left;spacingLeft=4;verticalAlign=top;strokeColor=none;fillColor=none;fontSize=8;spacing=-2;" vertex="1" parent="y_7dkP2vaX2RMSq6GHMM-16">
          <mxGeometry y="28" width="120" height="12" as="geometry" />
        </mxCell>
        <mxCell id="y_7dkP2vaX2RMSq6GHMM-22" value="" style="endArrow=open;endFill=1;endSize=12;html=1;strokeColor=#000000;fontSize=10;entryX=0;entryY=1;entryDx=0;entryDy=0;exitX=1;exitY=0.5;exitDx=0;exitDy=0;" edge="1" parent="DUBSgx6bod0XztLXTJJ8-1" source="y_7dkP2vaX2RMSq6GHMM-15" target="y_7dkP2vaX2RMSq6GHMM-17">
          <mxGeometry width="160" relative="1" as="geometry">
            <mxPoint x="330.0000000000001" y="280" as="sourcePoint" />
            <mxPoint x="370.0000000000001" y="280" as="targetPoint" />
          </mxGeometry>
        </mxCell>
        <mxCell id="3p7hJ3qPCMq-kQCpYzpF-1" value="Diagram/Use Cases" parent="EUdj9k4-ygwC6GXZzMeQ-0" />
        <mxCell id="j_jQY6_MoA7ddAZkF85R-0" value="Title/Diagram" parent="EUdj9k4-ygwC6GXZzMeQ-0" />
        <mxCell id="j_jQY6_MoA7ddAZkF85R-1" value="&lt;font style=&quot;font-size: 12px&quot;&gt;Diagram: Base System Logical Module -&amp;nbsp;Functionality -&amp;nbsp;System Sponsor Information&lt;/font&gt;" style="text;strokeColor=none;fillColor=none;html=1;fontSize=12;fontStyle=2;verticalAlign=middle;align=left;shadow=0;glass=0;comic=0;opacity=30;fontColor=#808080;" parent="j_jQY6_MoA7ddAZkF85R-0" vertex="1">
          <mxGeometry x="120" y="320" width="520" height="20" as="geometry" />
        </mxCell>
        <mxCell id="EUdj9k4-ygwC6GXZzMeQ-1" value="About" parent="EUdj9k4-ygwC6GXZzMeQ-0" />
        <UserObject label="" tooltip="ABOUT&#xa;&#xa;The sponsor is the organisation that is paying for the development of the system.&#xa;&#xa;&#xa;&#xa;Note that a User Interface will most probably want to refer to the Reseller information." id="d_qLapBw-uQUA25uXczn-0">
          <mxCell style="shape=image;html=1;verticalAlign=top;verticalLabelPosition=bottom;labelBackgroundColor=#ffffff;imageAspect=0;aspect=fixed;image=https://cdn1.iconfinder.com/data/icons/hawcons/32/699014-icon-28-information-128.png;shadow=0;dashed=0;fontFamily=Helvetica;fontSize=12;fontColor=#000000;align=center;strokeColor=#000000;fillColor=#505050;dashPattern=1 1;" parent="EUdj9k4-ygwC6GXZzMeQ-1" vertex="1">
            <mxGeometry x="660" y="460" width="20" height="20" as="geometry" />
          </mxCell>
        </UserObject>
      </root>
    </mxGraphModel>
  </diagram>
</mxfile>
